<?xml version="1.0" encoding="UTF-8" standalone="no"?>
<svg
   role="img"
   viewBox="0 0 24 24"
   version="1.1"
   id="svg6"
   sodipodi:docname="mastodon.svg"
   inkscape:version="1.1.2 (0a00cf5339, 2022-02-04)"
   xmlns:inkscape="http://www.inkscape.org/namespaces/inkscape"
   xmlns:sodipodi="http://sodipodi.sourceforge.net/DTD/sodipodi-0.dtd"
   xmlns="http://www.w3.org/2000/svg"
   xmlns:svg="http://www.w3.org/2000/svg"
   xmlns:rdf="http://www.w3.org/1999/02/22-rdf-syntax-ns#"
   xmlns:cc="http://creativecommons.org/ns#"
   xmlns:dc="http://purl.org/dc/elements/1.1/">
  <defs
     id="defs10" />
  <sodipodi:namedview
     id="namedview8"
     pagecolor="#505050"
     bordercolor="#eeeeee"
     borderopacity="1"
     inkscape:pageshadow="0"
     inkscape:pageopacity="0"
     inkscape:pagecheckerboard="0"
     showgrid="false"
     inkscape:zoom="36.375"
     inkscape:cx="12"
     inkscape:cy="12"
     inkscape:window-width="3766"
     inkscape:window-height="2096"
     inkscape:window-x="2234"
     inkscape:window-y="572"
     inkscape:window-maximized="1"
     inkscape:current-layer="svg6" />
  <title
     id="title2">Mastodon</title>
  <path
     d="M23.268 5.313c-.35-2.578-2.617-4.61-5.304-5.004C17.51.242 15.792 0 11.813 0h-.03c-3.98 0-4.835.242-5.288.309C3.882.692 1.496 2.518.917 5.127.64 6.412.61 7.837.661 9.143c.074 1.874.088 3.745.26 5.611.118 1.24.325 2.47.62 3.68.55 2.237 2.777 4.098 4.96 4.857 2.336.792 4.849.923 7.256.38.265-.061.527-.132.786-.213.585-.184 1.27-.39 1.774-.753a.057.057 0 0 0 .023-.043v-1.809a.052.052 0 0 0-.02-.041.053.053 0 0 0-.046-.01 20.282 20.282 0 0 1-4.709.545c-2.73 0-3.463-1.284-3.674-1.818a5.593 5.593 0 0 1-.319-1.433.053.053 0 0 1 .066-.054c1.517.363 3.072.546 4.632.546.376 0 .75 0 1.125-.01 1.57-.044 3.224-.124 4.768-.422.038-.008.077-.015.11-.024 2.435-.464 4.753-1.92 4.989-5.604.008-.145.03-1.52.03-1.67.002-.512.167-3.63-.024-5.545zm-3.748 9.195h-2.561V8.29c0-1.309-.55-1.976-1.67-1.976-1.23 0-1.846.79-1.846 2.35v3.403h-2.546V8.663c0-1.56-.617-2.35-1.848-2.35-1.112 0-1.668.668-1.67 1.977v6.218H4.822V8.102c0-1.31.337-2.35 1.011-3.12.696-.77 1.608-1.164 2.74-1.164 1.311 0 2.302.5 2.962 1.498l.638 1.06.638-1.06c.66-.999 1.65-1.498 2.96-1.498 1.13 0 2.043.395 2.74 1.164.675.77 1.012 1.81 1.012 3.12z"
     id="path4" />
  <metadata
     id="metadata12">
    <rdf:RDF>
      <cc:Work
         rdf:about="">
        <dc:title>Mastodon</dc:title>
      </cc:Work>
    </rdf:RDF>
  </metadata>
  <path
     style="fill:#ffffff;stroke:none;stroke-width:0.0274914"
     d="M 10.075601,23.969212 C 8.2439615,23.838311 6.5627384,23.41447 5.3745704,22.78407 4.534999,22.338624 3.8661988,21.846607 3.2163142,21.196304 2.3300325,20.309453 1.788032,19.385957 1.5299841,18.323024 1.3214856,17.464191 1.1399712,16.457009 1.0196706,15.491409 0.87169339,14.30366 0.81259053,13.307936 0.71207697,10.309278 0.64763339,8.3867098 0.64285771,8.0554243 0.67046492,7.4226804 0.74310818,5.757732 0.92281496,4.8338606 1.3442487,3.9587629 1.6574486,3.3084102 1.9498066,2.8913009 2.4591823,2.368079 2.9861829,1.8267531 3.5330933,1.419582 4.2011511,1.0711952 5.3787271,0.4570985 6.6308632,0.19165961 8.9347079,0.0677338 10.337872,-0.00774364 13.881216,0.00839032 15.463918,0.09746333 c 2.464218,0.13868404 3.357257,0.30675289 4.439862,0.83557719 1.687223,0.82416398 2.895926,2.28464278 3.268095,3.94884618 0.09358,0.4184314 0.120035,0.7207269 0.15792,1.8041829 0.02444,0.6988756 0.02422,1.2208882 -9.13e-4,2.2268041 -0.01806,0.7226617 -0.04417,1.8511863 -0.05802,2.5078333 -0.01385,0.656647 -0.03878,1.318503 -0.0554,1.470791 -0.267054,2.447949 -1.525642,4.100345 -3.731246,4.898741 -1.432417,0.518514 -4.280481,0.816231 -7.387995,0.77229 -1.585584,-0.02242 -2.8012637,-0.159471 -4.177546,-0.470958 -0.1882114,-0.0426 -0.3126843,-0.0587 -0.3317083,-0.04291 -0.065168,0.05408 0.076011,0.83923 0.2396508,1.332782 0.3618329,1.09132 1.3889092,1.767374 2.9420595,1.936557 0.343259,0.03739 1.563302,0.03747 2.127401,1.37e-4 0.922471,-0.06104 1.914441,-0.194127 2.774027,-0.372163 0.257044,-0.05324 0.507724,-0.103942 0.557066,-0.112674 l 0.08971,-0.01588 -0.0072,0.941179 -0.0072,0.941179 -0.19244,0.115414 c -0.277269,0.16629 -0.584337,0.298826 -1.092823,0.471681 -0.998608,0.339467 -1.814223,0.517917 -2.893431,0.633057 -0.367657,0.03922 -1.730076,0.072 -2.04811,0.04927 z M 7.3816784,11.415808 C 7.3818158,9.5513012 7.3930392,8.175586 7.4096492,7.9862543 7.490174,7.0683676 7.8673421,6.543804 8.5650279,6.3793584 c 0.2265825,-0.053406 0.7229955,-0.054033 0.974491,-0.00123 0.5669851,0.11904 0.9936051,0.5249111 1.1845211,1.1269125 0.140339,0.4425198 0.148475,0.5881143 0.14865,2.6599081 l 1.62e-4,1.917527 h 1.292096 1.292097 v -1.843008 c 0,-1.1217767 0.01146,-1.9458325 0.0293,-2.1057621 0.06805,-0.6102529 0.243115,-1.0309229 0.55926,-1.343848 0.323949,-0.3206502 0.686288,-0.4530864 1.23962,-0.4530864 0.986317,0 1.50664,0.4897756 1.634776,1.5387978 0.01812,0.1483447 0.02846,1.3989707 0.02846,3.4432997 v 3.210343 h 1.292096 1.292096 v -3.415976 c 0,-2.8795483 -0.0066,-3.4720046 -0.04173,-3.7727628 C 19.366898,6.2803178 18.995191,5.4407879 18.378651,4.8283445 17.886223,4.3391876 17.323233,4.038759 16.611235,3.885197 16.230511,3.803083 15.361223,3.795993 14.983815,3.871923 c -0.716736,0.1441985 -1.27972,0.4288985 -1.719618,0.8696075 -0.26107,0.261551 -0.399446,0.4531857 -0.757198,1.0486309 -0.176084,0.2930746 -0.323852,0.5367898 -0.328373,0.5415893 -0.0045,0.0048 -0.147793,-0.2240663 -0.318381,-0.5085911 C 11.496995,5.2172932 11.393065,5.0696962 11.149535,4.8138414 10.698648,4.3401364 10.137952,4.0363313 9.4359772,3.8853748 9.1972261,3.8340324 9.0672489,3.8247923 8.5773196,3.8243321 7.949735,3.8237438 7.71299,3.8580132 7.2518579,4.0162023 6.1371827,4.3985864 5.3149748,5.3363604 4.9902779,6.5956608 4.8120915,7.2867365 4.8164937,7.1815137 4.8047208,11.030928 L 4.794022,14.52921 h 1.2937108 1.2937105 l 2.474e-4,-3.113402 z"
     id="path107" />
  <path
     style="fill:#ffffff;stroke-width:0.0274914"
     d="M 9.8419244,23.939669 C 8.483079,23.817935 7.0924195,23.504228 6.0855321,23.092298 4.3067849,22.364589 2.6936799,20.943671 1.9663923,19.463918 1.6881271,18.897753 1.5309065,18.366702 1.3234131,17.292096 1.0391844,15.820079 0.89702958,14.510151 0.81176007,12.57732 0.68493588,9.702554 0.65162779,7.4875326 0.72329281,6.6941581 0.84146778,5.3858906 1.0083118,4.6968146 1.4002435,3.8983093 1.7407063,3.2046645 2.1405865,2.675077 2.7456752,2.1164656 3.2506819,1.6502489 3.7481168,1.3157246 4.4261168,0.98637119 5.5885023,0.42171681 6.913556,0.16982205 9.2508591,0.06918024 10.079958,0.03348013 13.20538,0.03358301 14.364261,0.06934848 c 1.965307,0.06065361 3.394313,0.19584666 4.223857,0.39960374 0.920513,0.22610136 1.901993,0.72731028 2.649159,1.35283668 1.037034,0.8682037 1.752288,2.070618 1.964829,3.3030815 0.144516,0.8380025 0.156665,2.8520893 0.04073,6.7514186 -0.02801,0.942181 -0.04574,1.151729 -0.138368,1.635738 -0.397919,2.079238 -1.602046,3.505577 -3.585564,4.247249 -0.920747,0.344284 -2.497807,0.597369 -4.577319,0.734565 -0.726699,0.04794 -3.715423,0.04826 -4.261169,4.46e-4 -0.9415721,-0.08249 -1.6590116,-0.187601 -2.5704464,-0.376601 -0.2570446,-0.0533 -0.4819843,-0.09695 -0.4998655,-0.09699 -0.060205,-1.38e-4 -0.065791,0.102554 -0.021719,0.39936 0.099079,0.667266 0.2757449,1.19791 0.5220644,1.568105 0.4695832,0.70574 1.3199989,1.15814 2.4801185,1.319361 0.425583,0.05914 2.329939,0.04234 2.948955,-0.02602 0.889373,-0.09822 1.673096,-0.221643 2.525178,-0.397684 l 0.257137,-0.05312 -0.01659,0.08294 c -0.0091,0.04561 -0.01659,0.46435 -0.01659,0.930521 v 0.847585 l -0.198052,0.115668 c -0.262113,0.153082 -0.583173,0.290504 -1.078248,0.461519 -1.10487,0.381656 -2.221541,0.603669 -3.329307,0.66192 -0.487705,0.02565 -1.594185,0.03095 -1.8411285,0.0088 z M 7.3911544,11.402062 C 7.4074612,8.2989163 7.421346,7.8227797 7.5047931,7.5051546 7.6570155,6.9257498 8.015545,6.5436789 8.5373289,6.4048203 c 0.2028377,-0.053979 0.8085677,-0.052986 1.0405925,0.00171 0.5454826,0.1285814 0.9888026,0.587396 1.1558346,1.1962312 0.09663,0.3522127 0.110505,0.5939068 0.117221,2.0415788 0.0036,0.7739647 0.01051,1.6391677 0.01538,1.9226727 l 0.0088,0.515464 h 1.290922 1.290923 l 5.5e-5,-0.570447 c 8.2e-5,-0.858947 0.02639,-2.8956196 0.04163,-3.2233675 0.02888,-0.6209688 0.223034,-1.1413966 0.546499,-1.4648616 0.350144,-0.3501435 0.649173,-0.4609798 1.244891,-0.4614232 0.857741,-6.378e-4 1.332039,0.3567227 1.55321,1.170271 0.05914,0.2175495 0.06008,0.2566258 0.08635,3.6082473 l 0.02656,3.388317 h 1.288197 1.288197 v -3.451256 c 0,-3.5425099 -0.0047,-3.7191757 -0.112069,-4.2531854 C 19.180879,5.6331175 18.507869,4.6952366 17.537957,4.2012253 17.009582,3.9321034 16.63034,3.8397232 15.958763,3.8165471 c -0.727549,-0.025108 -1.168161,0.04243 -1.716682,0.2631381 -0.38795,0.156099 -0.634566,0.3217633 -0.965894,0.6488371 -0.331577,0.3273199 -0.390787,0.4076545 -0.81822,1.1101325 l -0.283466,0.4658703 -0.3278,-0.5359989 C 11.66641,5.4737267 11.44079,5.1346906 11.345322,5.0151123 10.882437,4.435327 10.264516,4.06149 9.4570447,3.8727211 9.1378933,3.7981102 8.0201847,3.7983893 7.6975945,3.873161 6.6154595,4.1239808 5.7930375,4.76008 5.3083632,5.7211032 5.0896608,6.1547516 4.913575,6.7162658 4.8523535,7.1752588 4.8213812,7.4074669 4.804138,8.7714438 4.7869281,12.350517 l -0.010476,2.178694 h 1.2991346 1.2991346 l 0.016433,-3.127148 z"
     id="path294" />
</svg>
